<svg xmlns="http://www.w3.org/2000/svg" width="89" height="17" viewBox="0 0 89 17" fill="none">
  <path d="M41.8209 0.972614H34.3054L31.582 16.0037H36.1843L36.9865 11.106H41.3987C46.5498 11.106 46.782 6.20818 46.782 6.20818C47.2887 0.88817 41.8209 0.972614 41.8209 0.972614ZM42.4543 5.80706C42.3909 7.53818 40.0476 7.51706 40.0476 7.51706H37.5776L38.1054 4.49818H40.8076C42.5387 4.51929 42.4543 5.80706 42.4543 5.80706Z" fill="#9CE800"/>
  <path d="M9.85889 4.43476C9.85889 4.43476 7.47333 4.37143 6.27 5.76476L7.15667 0.972534H2.63889L0 15.7503H4.43333L4.60222 14.4414C4.60222 14.4414 5.97444 16.1092 8.02222 15.9825C8.02222 15.9825 13.68 16.067 13.7011 8.91032C13.68 8.93143 13.9544 4.41365 9.85889 4.43476ZM9.22556 10.177C9.12 11.8448 8.00111 12.7103 6.94556 12.7103C5.89 12.7103 5.17222 11.7814 5.36222 10.3037C5.55222 8.69921 6.60778 7.55921 7.79 7.64365C9.62667 7.74921 9.22556 10.177 9.22556 10.177Z" fill="#F2F2F3"/>
  <path d="M24.7845 8.06636C24.7845 11.233 20.2245 11.6764 17.5011 11.6553C17.5265 11.8073 17.569 11.9561 17.6278 12.0986C17.9234 12.6686 18.6623 12.8586 19.2534 12.8797C20.0391 12.896 20.8206 12.7598 21.5545 12.4786C21.9328 12.3241 22.2881 12.1181 22.61 11.8664L23.8978 13.9986C23.94 14.0619 23.0111 14.6741 22.9689 14.7164C22.2286 15.1806 21.4147 15.5161 20.5623 15.7086C18.9156 16.0886 16.9523 16.173 15.3689 15.4764C14.8385 15.2404 14.3677 14.8884 13.9914 14.4463C13.6151 14.0042 13.3427 13.4832 13.1945 12.9219C13.0169 12.2541 12.9316 11.5651 12.9411 10.8741C12.9411 7.70747 15.1789 4.64636 19.9289 4.64636C22.8423 4.66747 24.7845 5.76525 24.7845 8.06636ZM19.6756 7.22192C18.2823 7.22192 17.3745 8.29858 17.29 9.79747C18.7889 9.73414 20.7734 9.18525 20.7734 8.10858C20.7523 7.5597 20.3511 7.22192 19.6756 7.22192Z" fill="#F2F2F3"/>
  <path d="M30.8437 0.972534H27.1704L26.4948 4.6881H24.7848L24.2148 7.64365H25.946L25.2493 12.837C25.2493 12.837 24.8482 15.9614 27.9304 16.0037C31.0126 16.0459 32.6171 14.3148 32.6171 14.3148L31.2237 11.9714C31.2237 11.9714 29.3237 12.647 29.366 11.4437C29.4082 10.2403 29.8304 7.64365 29.8304 7.64365L32.3426 7.62254L32.8704 4.64588H30.1682L30.8437 0.972534Z" fill="#F2F2F3"/>
  <path d="M63.1012 4.8147H58.499L60.0612 16.0036H64.0301L66.9857 10.4091L67.5557 16.0036H71.5668L77.1612 4.8147H72.3057L70.2368 10.7469L69.5612 4.8147H66.1624L63.4179 11.0003L63.1012 4.8147Z" fill="#9CE800"/>
  <path d="M54.6357 4.81486L54.4457 5.8493C53.3825 5.0379 52.0884 4.58675 50.7512 4.56152C48.5979 4.56152 45.3257 6.31375 45.3468 11.3171C45.3468 14.0193 46.4234 16.1937 49.7168 16.0249C49.7168 16.0249 51.4901 16.046 52.7357 14.8849L52.5246 15.9826H56.7468L58.8579 4.81486H54.6357ZM51.4057 12.6049C50.3712 12.6682 49.6323 11.7815 49.5479 10.8104C49.4423 9.4593 50.5401 7.91819 51.9546 7.81263C52.3219 7.77328 52.6932 7.82167 53.0382 7.95378C53.3831 8.08592 53.692 8.298 53.939 8.57263L53.3479 11.7393C52.8125 12.2325 52.1304 12.5365 51.4057 12.6049Z" fill="#9CE800"/>
  <path d="M83.9589 4.81486L83.7689 5.8493C82.7058 5.0379 81.4116 4.58675 80.0745 4.56152C77.9211 4.56152 74.6489 6.31375 74.67 11.3171C74.67 14.0193 75.7467 16.1937 79.04 16.0249C79.04 16.0249 80.8134 16.046 82.0589 14.8849L81.8478 15.9826H86.07L88.1811 4.81486H83.9589ZM80.7289 12.6049C79.6945 12.6682 78.9556 11.7815 78.8711 10.8104C78.7656 9.4593 79.8634 7.91819 81.2778 7.81263C81.6451 7.77328 82.0165 7.82167 82.3614 7.95378C82.7064 8.08592 83.0152 8.298 83.2622 8.57263L82.6711 11.7393C82.1339 12.2294 81.4526 12.533 80.7289 12.6049Z" fill="#9CE800"/>
</svg>