<svg xmlns="http://www.w3.org/2000/svg" width="8" height="9" viewBox="0 0 8 9" fill="none">
  <path d="M7.74513 7.33157L4.52263 4.04657L7.91263 0.606571C7.97274 0.535802 8.00383 0.444904 7.99965 0.352149C7.99548 0.259393 7.95635 0.171656 7.89013 0.106571C7.82783 0.0429767 7.74391 0.00511136 7.655 0.000480885C7.5661 -0.00414959 7.4787 0.0247929 7.41013 0.0815711L3.99513 3.56657L0.580129 0.0940711C0.51156 0.0372929 0.42416 0.00835041 0.335255 0.0129809C0.24635 0.0176114 0.162429 0.0554767 0.100129 0.119071C0.0339095 0.184156 -0.00521979 0.271893 -0.00939379 0.364649C-0.0135678 0.457404 0.0175229 0.548302 0.0776291 0.619071L3.46763 4.04657L0.245129 7.33157L0.210129 7.36657C0.156162 7.41146 0.116181 7.47087 0.0949154 7.53777C0.0736495 7.60467 0.0719886 7.67626 0.0901291 7.74407C0.107006 7.81171 0.143158 7.87299 0.194193 7.92047C0.245229 7.96796 0.308954 7.99961 0.377629 8.01157C0.448631 8.02395 0.521716 8.01458 0.587298 7.98469C0.65288 7.9548 0.707896 7.90578 0.745129 7.84407L3.99513 4.51157L7.24513 7.83657C7.28218 7.89516 7.33546 7.94171 7.39849 7.97056C7.46152 7.99941 7.53157 8.00932 7.60013 7.99907C7.66939 7.98818 7.73397 7.9573 7.78593 7.91023C7.83789 7.86315 7.87498 7.80193 7.89263 7.73407C7.91077 7.66626 7.90911 7.59467 7.88784 7.52777C7.86658 7.46087 7.8266 7.40146 7.77263 7.35657L7.74513 7.33157Z" fill="#252A2D"/>
</svg>