<svg xmlns="http://www.w3.org/2000/svg" width="24" height="24" viewBox="0 0 24 24" fill="none">
  <path d="M19.2899 10.9336C18.9943 10.5336 18.6343 10.187 18.3001 9.84028C17.4388 9.04026 16.4619 8.46691 15.6392 7.62688C13.7238 5.68016 13.2996 2.46674 14.5208 0C13.2996 0.306675 12.2326 1.00003 11.32 1.76005C7.99056 4.53346 6.67937 9.42694 8.24765 13.6271C8.29907 13.7604 8.35049 13.8937 8.35049 14.0671C8.35049 14.3604 8.15767 14.6271 7.90058 14.7338C7.60492 14.8671 7.2964 14.7871 7.05216 14.5737C6.9792 14.5104 6.91818 14.4335 6.87219 14.3471C5.4196 12.4404 5.18821 9.70694 6.16518 7.52021C4.01843 9.3336 2.84864 12.4004 3.01576 15.2938C3.09288 15.9605 3.17001 16.6271 3.38854 17.2938C3.56851 18.0938 3.91559 18.8939 4.30123 19.6006C5.68955 21.9073 8.0934 23.5607 10.6772 23.894C13.4281 24.254 16.3719 23.734 18.4801 21.7606C20.8325 19.5472 21.6552 16.0005 20.4468 12.9604L20.2797 12.6137C20.0098 12.0003 19.2899 10.9336 19.2899 10.9336ZM15.2278 19.3339C14.8679 19.6539 14.2766 20.0006 13.8138 20.1339C12.374 20.6673 10.9343 19.9206 10.0859 19.0405C11.6156 18.6672 12.5283 17.4938 12.7983 16.3071C13.0168 15.2404 12.6054 14.3604 12.4383 13.3337C12.2841 12.347 12.3098 11.507 12.6568 10.587C12.9011 11.0936 13.1582 11.6003 13.4667 12.0003C14.4565 13.3337 16.0119 13.9204 16.3462 15.7338C16.3976 15.9205 16.4233 16.1071 16.4233 16.3071C16.4619 17.4005 15.9991 18.6005 15.2278 19.3339Z" fill="white"/>
</svg>