<svg xmlns="http://www.w3.org/2000/svg" width="16" height="16" viewBox="0 0 16 16" fill="none">
  <path d="M7.99967 1.33325C6.68113 1.33325 5.39221 1.72424 4.29588 2.45679C3.19955 3.18933 2.34506 4.23052 1.84047 5.44869C1.33589 6.66686 1.20388 8.00731 1.46111 9.30052C1.71835 10.5937 2.35328 11.7816 3.28563 12.714C4.21798 13.6463 5.40587 14.2812 6.69908 14.5385C7.99228 14.7957 9.33272 14.6637 10.5509 14.1591C11.7691 13.6545 12.8103 12.8 13.5428 11.7037C14.2753 10.6074 14.6663 9.31846 14.6663 7.99992C14.6663 6.23181 13.964 4.53612 12.7137 3.28587C11.4635 2.03563 9.76778 1.33325 7.99967 1.33325ZM7.78635 2.82658C8.01445 2.82527 8.23781 2.89162 8.4282 3.01726C8.61859 3.14289 8.76746 3.32216 8.85597 3.53239C8.94447 3.74263 8.96865 3.97439 8.92545 4.19836C8.88224 4.42234 8.77358 4.62847 8.61322 4.7907C8.45286 4.95293 8.248 5.06396 8.02454 5.10975C7.80107 5.15555 7.56904 5.13404 7.3578 5.04797C7.14655 4.9619 6.96558 4.81513 6.83776 4.6262C6.70993 4.43727 6.641 4.21468 6.63968 3.98658C6.64143 3.68301 6.76279 3.39237 6.97746 3.1777C7.19212 2.96304 7.48277 2.84166 7.78635 2.83991V2.82658ZM10.193 13.1732L5.83967 13.0399L5.76634 11.2933H7.04635L7.29301 7.87991L5.76634 8.26658L5.83967 6.11991L6.95968 6.01992L8.913 5.84659L9.38634 11.2933H10.6197L10.193 13.1732Z" fill="#353B40"/>
</svg>