<svg width="72" height="41" viewBox="0 0 72 41" fill="none" xmlns="http://www.w3.org/2000/svg">
<g clip-path="url(#clip0_19_604)">
<path d="M58.7924 0.783145H39.1694L32.0518 40.0431H44.1111L46.208 27.2331H57.7256C71.165 27.2331 71.8028 14.4343 71.8028 14.4343C73.0841 0.571478 58.7924 0.783145 58.7924 0.783145ZM60.4575 13.4098C60.2994 17.9423 54.1667 17.8887 54.1667 17.8887H47.7264L49.1008 9.98643H56.1395C60.672 10.0485 60.4546 13.4098 60.4575 13.4098Z" fill="#9CE800"/>
<path d="M25.8257 9.8509C25.8257 9.8509 19.6168 9.69285 16.439 13.2997L18.7476 0.783081H7.00147L0.115234 39.3911H11.6666L12.0928 36.0045C12.0928 36.0045 15.6967 40.3535 20.9997 40.0346C20.9997 40.0346 35.7487 40.2519 35.8531 21.5857C35.8531 21.5772 36.5389 9.8001 25.8257 9.8509ZM24.2029 24.8256C23.9377 29.1747 20.9997 31.4522 18.2339 31.4438C15.4681 31.4353 13.6281 28.9969 14.1078 25.1784C14.6299 20.9987 17.3365 18.0325 20.4691 18.216C25.2443 18.4954 24.2029 24.8256 24.2029 24.8256Z" fill="white"/>
</g>
<defs>
<clipPath id="clip0_19_604">
<rect width="71.7692" height="39.2685" fill="white" transform="translate(0.115234 0.783081)"/>
</clipPath>
</defs>
</svg>
