<svg width="72" height="40" viewBox="0 0 72 40" fill="none" xmlns="http://www.w3.org/2000/svg">
<g clip-path="url(#clip0_19_597)">
<path d="M58.7924 0.391543H39.1694L32.0518 39.6515H44.1111L46.208 26.8414H57.7256C71.165 26.8414 71.8028 14.0427 71.8028 14.0427C73.0841 0.179877 58.7924 0.391543 58.7924 0.391543ZM60.4575 13.0182C60.2994 17.5507 54.1667 17.4971 54.1667 17.4971H47.7264L49.1008 9.59482H56.1395C60.672 9.65691 60.4546 13.0182 60.4575 13.0182Z" fill="#252A2D"/>
<path d="M25.8257 9.45936C25.8257 9.45936 19.6168 9.30131 16.439 12.9081L18.7476 0.391541H7.00147L0.115234 38.9996H11.6666L12.0928 35.6129C12.0928 35.6129 15.6967 39.962 20.9997 39.6431C20.9997 39.6431 35.7487 39.8604 35.8531 21.1942C35.8531 21.1857 36.5389 9.40856 25.8257 9.45936ZM24.2029 24.4341C23.9377 28.7831 20.9997 31.0607 18.2339 31.0522C15.4681 31.0437 13.6281 28.6053 14.1078 24.7869C14.6299 20.6072 17.3365 17.641 20.4691 17.8244C25.2443 18.1038 24.2029 24.4341 24.2029 24.4341Z" fill="#252A2D"/>
</g>
<defs>
<clipPath id="clip0_19_597">
<rect width="71.7692" height="39.2685" fill="white" transform="translate(0.115234 0.391541)"/>
</clipPath>
</defs>
</svg>
