<svg width="250" height="44" viewBox="0 0 250 44" fill="none" xmlns="http://www.w3.org/2000/svg">
<path d="M118.481 0.865949H97.1893L89.4741 43.449H102.512L104.785 29.5737H117.285C131.878 29.5737 132.536 15.6983 132.536 15.6983C133.971 0.626719 118.481 0.865949 118.481 0.865949ZM120.275 14.5619C120.096 19.4662 113.457 19.4064 113.457 19.4064H106.46L107.955 10.8538H115.61C120.514 10.9137 120.275 14.5619 120.275 14.5619Z" fill="#9CE800"/>
<path d="M27.9321 10.6745C27.9321 10.6745 21.1739 10.495 17.7648 14.4423L20.2768 0.865967H7.47791L0.00195312 42.7314H12.5616L13.04 39.0233C13.04 39.0233 16.9275 43.7481 22.7289 43.3893C22.7289 43.3893 38.7573 43.6285 38.8171 23.3537C38.7573 23.4135 39.5348 10.6146 27.9321 10.6745ZM26.1379 26.9421C25.8389 31.667 22.6691 34.1191 19.6787 34.1191C16.6883 34.1191 14.6548 31.4875 15.1931 27.301C15.7314 22.7556 18.7218 19.526 22.071 19.7652C27.2743 20.0643 26.1379 26.9421 26.1379 26.9421Z" fill="white"/>
<path d="M70.2163 20.9614C70.2163 29.9326 57.2978 31.1885 49.5826 31.1287C49.6543 31.5596 49.7747 31.981 49.9415 32.3847C50.7788 33.9995 52.872 34.5378 54.5466 34.5976C56.7727 34.6438 58.9866 34.2579 61.0657 33.4612C62.1374 33.0237 63.144 32.44 64.0561 31.7268L67.7043 37.7674C67.8239 37.9468 65.1924 39.6812 65.0728 39.8009C62.9753 41.1161 60.6698 42.0665 58.2547 42.6118C53.5897 43.6884 48.0276 43.9276 43.542 41.9539C42.0392 41.2854 40.7056 40.2881 39.6395 39.0357C38.5733 37.7832 37.8019 36.3074 37.3818 34.7172C36.8787 32.8253 36.6372 30.8734 36.6641 28.9159C36.6641 19.9447 43.0038 11.2726 56.4605 11.2726C64.714 11.3324 70.2163 14.4424 70.2163 20.9614ZM55.7428 18.5691C51.7955 18.5691 49.2238 21.6193 48.9845 25.8657C53.2309 25.6862 58.8528 24.1312 58.8528 21.081C58.793 19.526 57.6566 18.5691 55.7428 18.5691Z" fill="white"/>
<path d="M87.3812 0.865967H76.9746L75.0608 11.3921H70.2164L68.6016 19.7652H73.5058L71.5321 34.4779C71.5321 34.4779 70.3958 43.3295 79.1277 43.4491C87.8596 43.5687 92.405 38.6644 92.405 38.6644L88.4577 32.0258C88.4577 32.0258 83.075 33.9396 83.1946 30.5306C83.3143 27.1216 84.5104 19.7652 84.5104 19.7652L91.6275 19.7054L93.1227 11.2725H85.4673L87.3812 0.865967Z" fill="white"/>
<path d="M178.767 11.751H165.729L170.155 43.4491H181.399L189.772 27.6L191.386 43.4491H202.75L218.599 11.751H204.843L198.982 28.5569L197.068 11.751H187.439L179.664 29.2746L178.767 11.751Z" fill="#9CE800"/>
<path d="M154.784 11.751L154.246 14.6816C151.234 12.3829 147.568 11.1048 143.78 11.0333C137.679 11.0333 128.409 15.9974 128.469 30.1718C128.469 37.8272 131.519 43.9874 140.849 43.5089C140.849 43.5089 145.873 43.5687 149.402 40.2793L148.804 43.3893H160.765L166.746 11.751H154.784ZM145.634 33.8201C142.703 33.9995 140.61 31.4876 140.371 28.7364C140.072 24.9087 143.182 20.5427 147.189 20.2437C148.23 20.1322 149.282 20.2693 150.259 20.6436C151.236 21.0179 152.111 21.6187 152.811 22.3968L151.136 31.3679C149.619 32.7652 147.687 33.6265 145.634 33.8201Z" fill="#9CE800"/>
<path d="M237.857 11.751L237.319 14.6816C234.307 12.3829 230.641 11.1048 226.853 11.0333C220.752 11.0333 211.482 15.9974 211.542 30.1718C211.542 37.8272 214.592 43.9874 223.922 43.5089C223.922 43.5089 228.946 43.5687 232.474 40.2793L231.876 43.3893H243.838L249.819 11.751H237.857ZM228.707 33.8201C225.776 33.9995 223.683 31.4876 223.444 28.7364C223.144 24.9087 226.254 20.5427 230.262 20.2437C231.302 20.1322 232.354 20.2693 233.332 20.6436C234.309 21.0179 235.184 21.6187 235.884 22.3968L234.209 31.3679C232.687 32.7563 230.757 33.6164 228.707 33.8201Z" fill="#9CE800"/>
</svg>
