<svg width="250" height="44" viewBox="0 0 250 44" fill="none" xmlns="http://www.w3.org/2000/svg">
<g clip-path="url(#clip0_19_603)">
<path d="M118.481 0.740949H97.1893L89.4741 43.324H102.512L104.785 29.4487H117.285C131.878 29.4487 132.536 15.5733 132.536 15.5733C133.971 0.501718 118.481 0.740949 118.481 0.740949ZM120.275 14.4369C120.096 19.3412 113.457 19.2814 113.457 19.2814H106.46L107.955 10.7289H115.61C120.514 10.7887 120.275 14.4369 120.275 14.4369Z" fill="white"/>
<path d="M27.9321 10.5494C27.9321 10.5494 21.1739 10.37 17.7648 14.3173L20.2768 0.740967H7.47791L0.00195312 42.6063H12.5616L13.04 38.8983C13.04 38.8983 16.9275 43.6231 22.7289 43.2642C22.7289 43.2642 38.7573 43.5034 38.8171 23.2286C38.7573 23.2884 39.5348 10.4896 27.9321 10.5494ZM26.1379 26.8171C25.8389 31.5419 22.6691 33.994 19.6787 33.994C16.6883 33.994 14.6548 31.3625 15.1931 27.1759C15.7314 22.6306 18.7218 19.4009 22.071 19.6402C27.2743 19.9392 26.1379 26.8171 26.1379 26.8171Z" fill="white"/>
<path d="M70.2159 20.8363C70.2159 29.8075 57.2975 31.0634 49.5823 31.0036C49.6542 31.4345 49.7745 31.8558 49.9411 32.2596C50.7784 33.8744 52.8717 34.4127 54.5463 34.4725C56.7723 34.5186 58.9862 34.1326 61.0653 33.3361C62.1365 32.8973 63.1431 32.3138 64.0557 31.6017L67.704 37.6423C67.8236 37.8217 65.1921 39.5561 65.0725 39.6757C62.975 40.9916 60.67 41.942 58.2544 42.4867C53.5894 43.5632 48.0273 43.8025 43.5417 41.8288C42.0382 41.1614 40.7039 40.1644 39.6377 38.9118C38.5714 37.6592 37.8003 36.1828 37.3815 34.5921C36.8773 32.7004 36.6358 30.7482 36.6638 28.7907C36.6638 19.8196 43.0034 11.1475 56.4601 11.1475C64.7136 11.2073 70.2159 14.3173 70.2159 20.8363ZM55.7425 18.444C51.7951 18.444 49.2234 21.4942 48.9842 25.7405C53.2305 25.5611 58.8525 24.0061 58.8525 20.9559C58.7927 19.4009 57.6563 18.444 55.7425 18.444Z" fill="white"/>
<path d="M87.3812 0.740967H76.9746L75.0608 11.2671H70.2164L68.6016 19.6402H73.5058L71.5321 34.3529C71.5321 34.3529 70.3958 43.2045 79.1277 43.3241C87.8596 43.4437 92.405 38.5395 92.405 38.5395L88.4577 31.9007C88.4577 31.9007 83.075 33.8146 83.1946 30.4056C83.3143 26.9965 84.5104 19.6402 84.5104 19.6402L91.6275 19.5804L93.1227 11.1475H85.4673L87.3812 0.740967Z" fill="white"/>
<path d="M178.767 11.626H165.729L170.155 43.3241H181.399L189.772 27.475L191.386 43.3241H202.75L218.599 11.626H204.843L198.982 28.4319L197.068 11.626H187.439L179.664 29.1496L178.767 11.626Z" fill="white"/>
<path d="M154.784 11.6259L154.246 14.5565C151.234 12.2597 147.567 10.9818 143.78 10.9082C137.679 10.9082 128.409 15.8722 128.469 30.0467C128.469 37.702 131.519 43.8623 140.849 43.3838C140.849 43.3838 145.873 43.4436 149.402 40.1542L148.804 43.2642H160.765L166.746 11.6259H154.784ZM145.634 33.6949C142.703 33.8744 140.61 31.3624 140.371 28.6113C140.072 24.7836 143.182 20.4177 147.189 20.1186C148.23 20.0042 149.283 20.1399 150.261 20.5144C151.238 20.8889 152.113 21.4914 152.811 22.2717L151.136 31.2428C149.621 32.6412 147.687 33.5028 145.634 33.6949Z" fill="white"/>
<path d="M237.857 11.6259L237.319 14.5565C234.306 12.2597 230.64 10.9818 226.853 10.9082C220.752 10.9082 211.482 15.8722 211.542 30.0467C211.542 37.702 214.592 43.8623 223.922 43.3838C223.922 43.3838 228.946 43.4436 232.474 40.1542L231.876 43.2642H243.838L249.819 11.6259H237.857ZM228.707 33.6949C225.776 33.8744 223.683 31.3624 223.444 28.6113C223.144 24.7836 226.254 20.4177 230.262 20.1186C231.302 20.0042 232.355 20.1399 233.333 20.5144C234.311 20.8889 235.186 21.4914 235.884 22.2717L234.209 31.2428C232.687 32.6313 230.757 33.4912 228.707 33.6949Z" fill="white"/>
</g>
<defs>
<clipPath id="clip0_19_603">
<rect width="249.996" height="43.0615" fill="white" transform="translate(0.00195312 0.721558)"/>
</clipPath>
</defs>
</svg>
