<svg width="72" height="40" viewBox="0 0 72 40" fill="none" xmlns="http://www.w3.org/2000/svg">
<g clip-path="url(#clip0_19_605)">
<path d="M58.7924 0.0515775H39.1694L32.0518 39.3116H44.1111L46.208 26.5015H57.7256C71.165 26.5015 71.8028 13.7027 71.8028 13.7027C73.0841 -0.160089 58.7924 0.0515775 58.7924 0.0515775ZM60.4575 12.6782C60.2994 17.2107 54.1667 17.1571 54.1667 17.1571H47.7264L49.1008 9.25486H56.1395C60.672 9.31695 60.4546 12.6782 60.4575 12.6782Z" fill="white"/>
<path d="M25.8257 9.11933C25.8257 9.11933 19.6168 8.96128 16.439 12.5681L18.7476 0.0515137H7.00147L0.115234 38.6596H11.6666L12.0928 35.2729C12.0928 35.2729 15.6967 39.622 20.9997 39.303C20.9997 39.303 35.7487 39.5204 35.8531 20.8541C35.8531 20.8457 36.5389 9.06853 25.8257 9.11933ZM24.2029 24.0941C23.9377 28.4431 20.9997 30.7207 18.2339 30.7122C15.4681 30.7037 13.6281 28.2653 14.1078 24.4468C14.6299 20.2671 17.3365 17.301 20.4691 17.4844C25.2443 17.7638 24.2029 24.0941 24.2029 24.0941Z" fill="white"/>
</g>
<defs>
<clipPath id="clip0_19_605">
<rect width="71.7692" height="39.2685" fill="white" transform="translate(0.115234 0.0515137)"/>
</clipPath>
</defs>
</svg>
