<svg width="72" height="40" viewBox="0 0 72 40" fill="none" xmlns="http://www.w3.org/2000/svg">
<g clip-path="url(#clip0_19_596)">
<path d="M58.7924 0.12305H39.1694L32.0518 39.383H44.1111L46.208 26.573H57.7256C71.165 26.573 71.8028 13.7742 71.8028 13.7742C73.0841 -0.088617 58.7924 0.12305 58.7924 0.12305ZM60.4575 12.7497C60.2994 17.2822 54.1667 17.2286 54.1667 17.2286H47.7264L49.1008 9.32633H56.1395C60.672 9.38842 60.4546 12.7497 60.4575 12.7497Z" fill="#9CE800"/>
<path d="M25.8257 9.19086C25.8257 9.19086 19.6168 9.03282 16.439 12.6396L18.7476 0.123047H7.00147L0.115234 38.7311H11.6666L12.0928 35.3444C12.0928 35.3444 15.6967 39.6935 20.9997 39.3746C20.9997 39.3746 35.7487 39.5919 35.8531 20.9257C35.8531 20.9172 36.5389 9.14006 25.8257 9.19086ZM24.2029 24.1656C23.9377 28.5147 20.9997 30.7922 18.2339 30.7837C15.4681 30.7753 13.6281 28.3368 14.1078 24.5184C14.6299 20.3387 17.3365 17.3725 20.4691 17.5559C25.2443 17.8353 24.2029 24.1656 24.2029 24.1656Z" fill="#252A2D"/>
</g>
<defs>
<clipPath id="clip0_19_596">
<rect width="71.7692" height="39.2685" fill="white" transform="translate(0.115234 0.123047)"/>
</clipPath>
</defs>
</svg>
