<svg width="250" height="44" viewBox="0 0 250 44" fill="none" xmlns="http://www.w3.org/2000/svg">
<g clip-path="url(#clip0_19_594)">
<path d="M118.481 0.205976H97.1893L89.4741 42.7891H102.512L104.785 28.9137H117.285C131.878 28.9137 132.536 15.0383 132.536 15.0383C133.971 -0.033254 118.481 0.205976 118.481 0.205976ZM120.275 13.902C120.096 18.8062 113.457 18.7464 113.457 18.7464H106.46L107.955 10.1939H115.61C120.514 10.2537 120.275 13.902 120.275 13.902Z" fill="#9CE800"/>
<path d="M27.9321 10.0144C27.9321 10.0144 21.1739 9.83502 17.7648 13.7823L20.2768 0.205963H7.47791L0.00195312 42.0714H12.5616L13.04 38.3633C13.04 38.3633 16.9275 43.0881 22.7289 42.7293C22.7289 42.7293 38.7573 42.9685 38.8171 22.6937C38.7573 22.7535 39.5348 9.95464 27.9321 10.0144ZM26.1379 26.2821C25.8389 31.007 22.6691 33.4591 19.6787 33.4591C16.6883 33.4591 14.6548 30.8275 15.1931 26.641C15.7314 22.0956 18.7218 18.866 22.071 19.1052C27.2743 19.4043 26.1379 26.2821 26.1379 26.2821Z" fill="#252A2D"/>
<path d="M70.2163 20.3014C70.2163 29.2725 57.2978 30.5285 49.5826 30.4687C49.6543 30.8995 49.7747 31.3209 49.9415 31.7246C50.7788 33.3394 52.872 33.8777 54.5466 33.9375C56.7727 33.9837 58.9866 33.5979 61.0657 32.8012C62.1374 32.3636 63.144 31.78 64.0561 31.0667L67.7043 37.1073C67.8239 37.2867 65.1924 39.0212 65.0728 39.1408C62.9753 40.456 60.6698 41.4064 58.2547 41.9518C53.5897 43.0283 48.0276 43.2675 43.542 41.2939C42.0392 40.6253 40.7056 39.628 39.6395 38.3756C38.5733 37.1231 37.8019 35.6474 37.3818 34.0571C36.8787 32.1652 36.6372 30.2133 36.6641 28.2558C36.6641 19.2846 43.0038 10.6125 56.4605 10.6125C64.714 10.6723 70.2163 13.7823 70.2163 20.3014ZM55.7428 17.9091C51.7955 17.9091 49.2238 20.9593 48.9845 25.2056C53.2309 25.0262 58.8528 23.4712 58.8528 20.421C58.793 18.866 57.6566 17.9091 55.7428 17.9091Z" fill="#252A2D"/>
<path d="M87.3812 0.205963H76.9746L75.0608 10.7321H70.2164L68.6016 19.1052H73.5058L71.5321 33.8179C71.5321 33.8179 70.3958 42.6694 79.1277 42.7891C87.8596 42.9087 92.405 38.0044 92.405 38.0044L88.4577 31.3658C88.4577 31.3658 83.075 33.2796 83.1946 29.8706C83.3143 26.4616 84.5104 19.1052 84.5104 19.1052L91.6275 19.0454L93.1227 10.6125H85.4673L87.3812 0.205963Z" fill="#252A2D"/>
<path d="M178.767 11.091H165.729L170.155 42.7891H181.399L189.772 26.94L191.386 42.7891H202.75L218.599 11.091H204.843L198.982 27.897L197.068 11.091H187.439L179.664 28.6147L178.767 11.091Z" fill="#9CE800"/>
<path d="M154.784 11.091L154.246 14.0216C151.234 11.7229 147.568 10.4448 143.78 10.3733C137.679 10.3733 128.409 15.3373 128.469 29.5118C128.469 37.1671 131.519 43.3273 140.849 42.8489C140.849 42.8489 145.873 42.9087 149.402 39.6193L148.804 42.7293H160.765L166.746 11.091H154.784ZM145.634 33.16C142.703 33.3394 140.61 30.8275 140.371 28.0764C140.072 24.2487 143.182 19.8827 147.189 19.5837C148.23 19.4722 149.282 19.6093 150.259 19.9835C151.236 20.3579 152.111 20.9587 152.811 21.7368L151.136 30.7079C149.619 32.1051 147.687 32.9665 145.634 33.16Z" fill="#9CE800"/>
<path d="M237.857 11.091L237.319 14.0216C234.307 11.7229 230.641 10.4448 226.853 10.3733C220.752 10.3733 211.482 15.3373 211.542 29.5118C211.542 37.1671 214.592 43.3273 223.922 42.8489C223.922 42.8489 228.946 42.9087 232.474 39.6193L231.876 42.7293H243.838L249.819 11.091H237.857ZM228.707 33.16C225.776 33.3394 223.683 30.8275 223.444 28.0764C223.144 24.2487 226.254 19.8827 230.262 19.5837C231.302 19.4722 232.354 19.6093 233.332 19.9835C234.309 20.3579 235.184 20.9587 235.884 21.7368L234.209 30.7079C232.687 32.0963 230.757 32.9563 228.707 33.16Z" fill="#9CE800"/>
</g>
<defs>
<clipPath id="clip0_19_594">
<rect width="249.996" height="43.0615" fill="white" transform="translate(0.00195312)"/>
</clipPath>
</defs>
</svg>
