<svg width="250" height="44" viewBox="0 0 250 44" fill="none" xmlns="http://www.w3.org/2000/svg">
<g clip-path="url(#clip0_19_595)">
<path d="M118.481 0.0617499H97.1893L89.4741 42.6448H102.512L104.785 28.7695H117.285C131.878 28.7695 132.536 14.8941 132.536 14.8941C133.971 -0.17748 118.481 0.0617499 118.481 0.0617499ZM120.275 13.7577C120.096 18.662 113.457 18.6021 113.457 18.6021H106.46L107.955 10.0496H115.61C120.514 10.1095 120.275 13.7577 120.275 13.7577Z" fill="#252A2D"/>
<path d="M27.9321 9.87037C27.9321 9.87037 21.1739 9.69095 17.7648 13.6383L20.2768 0.0618896H7.47791L0.00195312 41.9273H12.5616L13.04 38.2192C13.04 38.2192 16.9275 42.944 22.7289 42.5852C22.7289 42.5852 38.7573 42.8244 38.8171 22.5496C38.7573 22.6094 39.5348 9.81056 27.9321 9.87037ZM26.1379 26.1381C25.8389 30.8629 22.6691 33.315 19.6787 33.315C16.6883 33.315 14.6548 30.6835 15.1931 26.4969C15.7314 21.9515 18.7218 18.7219 22.071 18.9611C27.2743 19.2602 26.1379 26.1381 26.1379 26.1381Z" fill="#252A2D"/>
<path d="M70.2159 20.1571C70.2159 29.1283 57.2975 30.3842 49.5823 30.3244C49.6542 30.7553 49.7745 31.1766 49.9411 31.5804C50.7784 33.1952 52.8717 33.7335 54.5463 33.7933C56.7723 33.8394 58.9862 33.4535 61.0653 32.6569C62.1365 32.2182 63.1431 31.6346 64.0557 30.9225L67.704 36.9631C67.8236 37.1425 65.1921 38.8769 65.0725 38.9965C62.975 40.3124 60.67 41.2628 58.2544 41.8075C53.5894 42.884 48.0273 43.1233 43.5417 41.1496C42.0382 40.4822 40.7039 39.4852 39.6377 38.2326C38.5714 36.98 37.8003 35.5037 37.3815 33.9129C36.8773 32.0212 36.6358 30.0691 36.6638 28.1115C36.6638 19.1404 43.0034 10.4683 56.4601 10.4683C64.7136 10.5281 70.2159 13.6381 70.2159 20.1571ZM55.7425 17.7648C51.7951 17.7648 49.2234 20.815 48.9842 25.0613C53.2305 24.8819 58.8525 23.3269 58.8525 20.2767C58.7927 18.7217 57.6563 17.7648 55.7425 17.7648Z" fill="#252A2D"/>
<path d="M87.3812 0.0617065H76.9746L75.0608 10.5879H70.2164L68.6016 18.961H73.5058L71.5321 33.6737C71.5321 33.6737 70.3958 42.5252 79.1277 42.6448C87.8596 42.7644 92.405 37.8602 92.405 37.8602L88.4577 31.2215C88.4577 31.2215 83.075 33.1354 83.1946 29.7263C83.3143 26.3173 84.5104 18.961 84.5104 18.961L91.6275 18.9011L93.1227 10.4683H85.4673L87.3812 0.0617065Z" fill="#252A2D"/>
<path d="M178.767 10.9467H165.729L170.155 42.6448H181.399L189.772 26.7958L191.386 42.6448H202.75L218.599 10.9467H204.843L198.982 27.7527L197.068 10.9467H187.439L179.664 28.4704L178.767 10.9467Z" fill="#252A2D"/>
<path d="M154.784 10.9468L154.246 13.8773C151.234 11.5805 147.567 10.3026 143.78 10.2291C137.679 10.2291 128.409 15.1931 128.469 29.3675C128.469 37.0229 131.519 43.1831 140.849 42.7046C140.849 42.7046 145.873 42.7645 149.402 39.475L148.804 42.585H160.765L166.746 10.9468H154.784ZM145.634 33.0158C142.703 33.1952 140.61 30.6833 140.371 27.9321C140.072 24.1044 143.182 19.7385 147.189 19.4394C148.23 19.325 149.283 19.4607 150.261 19.8352C151.238 20.2097 152.113 20.8122 152.811 21.5925L151.136 30.5637C149.621 31.962 147.687 32.8236 145.634 33.0158Z" fill="#252A2D"/>
<path d="M237.857 10.9468L237.319 13.8773C234.306 11.5805 230.64 10.3026 226.853 10.2291C220.752 10.2291 211.482 15.1931 211.542 29.3675C211.542 37.0229 214.592 43.1831 223.922 42.7046C223.922 42.7046 228.946 42.7645 232.474 39.475L231.876 42.585H243.838L249.819 10.9468H237.857ZM228.707 33.0158C225.776 33.1952 223.683 30.6833 223.444 27.9321C223.144 24.1044 226.254 19.7385 230.262 19.4394C231.302 19.325 232.355 19.4607 233.333 19.8352C234.311 20.2097 235.186 20.8122 235.884 21.5925L234.209 30.5637C232.687 31.9521 230.757 32.8121 228.707 33.0158Z" fill="#252A2D"/>
</g>
<defs>
<clipPath id="clip0_19_595">
<rect width="249.996" height="43.0615" fill="white" transform="translate(0.00195312 0.0615234)"/>
</clipPath>
</defs>
</svg>
