<svg xmlns="http://www.w3.org/2000/svg" width="24" height="24" viewBox="0 0 24 24" fill="none">
  <path d="M20.0813 0.00972557C16.5342 0.314745 13.1751 1.78822 10.3093 4.29408C9.80187 4.73518 8.5005 6.01626 7.94143 6.62161L7.46692 7.13779L5.77561 7.16126C3.78362 7.18941 3.76013 7.19411 3.23395 7.69152C2.93327 7.96839 2.90978 8.01062 2.02184 9.78442C1.52385 10.7793 1.08692 11.6755 1.05404 11.7788C0.978868 12.0134 0.983566 12.2856 1.06813 12.4498C1.16209 12.6235 1.37351 12.8205 1.53794 12.8815C1.61781 12.9144 2.14399 12.9332 2.89569 12.9332C4.00443 12.9332 4.11719 12.9379 4.089 13.0082C4.07021 13.0505 4.03262 13.2804 4.00443 13.515C3.96215 13.8764 3.96215 13.9984 4.02792 14.3175C4.18296 15.0589 4.16417 15.0355 6.5461 17.4146C7.73471 18.5971 8.78708 19.6154 8.88574 19.6764C9.41193 20.0002 10.2059 20.0847 10.9341 19.9017L11.061 19.8688V21.0889C11.061 21.8397 11.0797 22.3653 11.1126 22.4451C11.1737 22.6093 11.371 22.8205 11.5449 22.9143C11.6905 22.9894 11.9677 23.0082 12.1462 22.9519C12.2073 22.9331 13.1046 22.5014 14.1382 21.9899C16.0033 21.0701 16.0221 21.0608 16.3087 20.7557C16.8067 20.2208 16.8114 20.202 16.8302 18.217L16.8443 16.5371L17.1356 16.2743C17.6712 15.7863 18.7705 14.6976 19.3202 14.1063C21.5706 11.6802 23.0974 8.82244 23.7129 5.8661C23.9337 4.83372 23.9995 4.16737 23.9995 3.0083C24.0042 2.02285 23.9948 1.90084 23.9008 1.60052C23.6659 0.863779 23.1585 0.347593 22.4303 0.112963C22.1719 0.0331879 21.984 0.0144176 21.2088 0.00503159C20.7061 -0.00435257 20.1987 0.000339508 20.0813 0.00972557ZM17.549 4.2753C18.3853 4.49117 19.1088 5.08243 19.5081 5.87548C19.7289 6.31659 19.8182 6.69669 19.8182 7.25511C19.8229 8.11855 19.5363 8.79428 18.9068 9.4184C18.2678 10.0519 17.5114 10.3382 16.5859 10.2959C16.0315 10.2678 15.6557 10.1551 15.1859 9.87828C14.8053 9.65303 14.3355 9.19785 14.1241 8.83652C13.5885 7.94023 13.5462 6.79993 14.0207 5.85671C14.4483 5.00735 15.2986 4.37854 16.2664 4.20492C16.5671 4.14861 17.1873 4.18145 17.549 4.2753Z" fill="white"/>
  <path d="M6.34354 0.990456C6.20259 1.04207 5.84554 1.37056 4.87304 2.33723C4.16832 3.04113 3.55757 3.68401 3.51999 3.76379C3.40723 3.99842 3.43072 4.37383 3.56697 4.60846C3.69382 4.81962 4.06497 5.04956 4.29047 5.04956C4.67102 5.04956 4.74149 4.99325 6.07105 3.67463C6.88382 2.86281 7.38651 2.32785 7.44289 2.21053C7.67779 1.7225 7.4053 1.11246 6.88851 0.966993C6.66301 0.905989 6.56904 0.910682 6.34354 0.990456Z" fill="white"/>
  <path d="M1.87596 1.5912C1.61287 1.6569 0.250421 2.99429 0.132969 3.29931C-0.0220676 3.70756 0.15646 4.20029 0.537004 4.39269C0.739022 4.49592 1.10547 4.51939 1.32158 4.43492C1.51421 4.36453 2.83437 3.04591 2.93772 2.82066C3.16793 2.32794 2.89544 1.72259 2.37865 1.57712C2.17664 1.52081 2.12496 1.5255 1.87596 1.5912Z" fill="white"/>
  <path d="M21.8426 16.4151C21.6829 16.4573 21.448 16.6685 20.3533 17.7572C19.6345 18.4705 19.0191 19.118 18.9768 19.2025C18.8688 19.4324 18.8875 19.8219 19.0144 20.0284C19.1788 20.2959 19.4936 20.4883 19.7708 20.4883C20.1231 20.4883 20.2124 20.4179 21.5326 19.1133C22.3641 18.2874 22.848 17.7713 22.9044 17.6493C23.1393 17.1425 22.8621 16.5606 22.3125 16.4104C22.0963 16.3541 22.0963 16.3541 21.8426 16.4151Z" fill="white"/>
  <path d="M2.94223 17.8182C1.65965 17.9872 0.715336 18.9116 0.278414 20.4179C0.0576045 21.1828 0.00592556 21.6474 0.00122747 22.7689C-0.00347061 23.745 0.00122747 23.8154 0.0904911 23.9139C0.170358 24.0031 0.217339 24.0125 0.414659 23.989C0.724732 23.9562 1.11467 23.7591 1.2838 23.5526C1.35897 23.4634 1.46703 23.2664 1.51871 23.1162C1.66435 22.7173 1.80529 22.5343 1.96972 22.5155C2.23282 22.4921 2.29389 22.5859 2.32678 23.0787C2.35497 23.5198 2.48182 23.8858 2.62276 23.9421C2.70732 23.9749 3.35566 23.8389 3.80198 23.6934C4.99059 23.3133 5.79396 22.5812 6.10874 21.6005C6.25907 21.1218 6.28256 20.4461 6.15572 19.9721C5.9396 19.1744 5.34765 18.4517 4.62414 18.1045C4.04158 17.8323 3.51539 17.7385 2.94223 17.8182Z" fill="white"/>
  <path d="M21.1381 20.9529C20.8609 21.0843 19.5454 22.4311 19.4702 22.6657C19.3434 23.0646 19.5313 23.5432 19.8931 23.7263C20.1327 23.8483 20.4944 23.8483 20.7293 23.731C20.9407 23.623 22.1998 22.356 22.3079 22.1449C22.3502 22.0604 22.3831 21.8821 22.3831 21.7413C22.3831 21.1031 21.7206 20.6808 21.1381 20.9529Z" fill="white"/>
</svg>