<svg xmlns="http://www.w3.org/2000/svg" width="24" height="24" viewBox="0 0 24 24" fill="none">
  <path d="M16.1145 9.1888L11.9602 6.81218L11.3295 1.99902H11.9602C13.7922 1.99975 15.589 2.50201 17.1546 3.45107C18.7203 4.40013 19.9948 5.75959 20.8394 7.38137L16.1145 9.1888Z" fill="#AAAEB0"/>
  <path d="M15.1425 10.7535L14.3417 14.7678L10.0172 15.4768L8.02511 11.7521L11.6789 8.51671L15.1425 10.7535Z" fill="#AAAEB0"/>
  <path d="M15.8711 15.579L16.9322 10.5861L21.7772 9.89708C21.9218 10.5902 21.9956 11.2961 21.9974 12.0041C22.0209 13.2878 21.7848 14.5631 21.3032 15.7538C20.8216 16.9445 20.1045 18.0261 19.1945 18.9342L15.8711 15.579Z" fill="#AAAEB0"/>
  <path d="M14.5702 16.545L9.46493 17.2739L7.02239 20.6791C8.73615 21.6574 10.7017 22.1083 12.6717 21.975C14.6417 21.8418 16.5282 21.1303 18.0939 19.9302L14.5702 16.545Z" fill="#AAAEB0"/>
  <path d="M6.72426 10.7522L10.4982 7.11733L9.37701 2.34412C7.52102 2.84698 5.84954 3.87252 4.56248 5.29809C3.27542 6.72367 2.42727 8.48891 2.11948 10.3827L6.72426 10.7522Z" fill="#AAAEB0"/>
  <path d="M6.35354 12.2541L8.02528 15.859L6.00318 19.9032C4.80484 19.0081 3.82304 17.8562 3.13007 16.5324C2.43709 15.2086 2.05059 13.7466 1.99902 12.2541H6.35354Z" fill="#AAAEB0"/>
</svg>